<?xml version="1.0" standalone="no"?>
<!DOCTYPE svg PUBLIC "-//W3C//DTD SVG 20010904//EN"
 "http://www.w3.org/TR/2001/REC-SVG-20010904/DTD/svg10.dtd">
<svg version="1.0" xmlns="http://www.w3.org/2000/svg"
 width="500.000000pt" height="500.000000pt" viewBox="0 0 500.000000 500.000000"
 preserveAspectRatio="xMidYMid meet">

<g transform="translate(0.000000,500.000000) scale(0.100000,-0.100000)"
fill="#000000" stroke="none">
<path d="M0 2500 l0 -2500 2500 0 2500 0 0 2500 0 2500 -2500 0 -2500 0 0
-2500z m3412 45 c493 -852 910 -1577 928 -1609 l34 -59 -60 34 c-33 19 -125
72 -204 118 l-145 83 -727 1262 -728 1262 0 234 c0 128 2 231 4 229 2 -2 406
-701 898 -1554z m-956 458 c-19 -32 -233 -402 -476 -823 -242 -421 -446 -770
-453 -777 -11 -11 -375 -225 -441 -260 l-29 -15 19 33 c11 19 230 399 488 844
l467 810 227 122 c125 67 228 122 229 122 1 1 -13 -25 -31 -56z m54 -1373 l3
-125 -104 -188 c-57 -103 -107 -186 -112 -184 -5 1 -39 61 -77 133 l-69 130
172 298 172 297 6 -118 c4 -65 8 -174 9 -243z m-149 -647 l60 -113 -887 0
c-488 0 -885 3 -882 6 4 3 91 55 195 115 l188 109 633 -3 633 -2 60 -112z"/>
</g>
</svg>
